<svg xmlns="http://www.w3.org/2000/svg" width="32.5" height="40.001" viewBox="0 0 32.5 40.001">
  <path id="pinterest" d="M19.044,0C8.079,0,2.25,7.027,2.25,14.687c0,3.552,1.985,7.984,5.164,9.389.907.408.787-.09,1.567-3.073a.708.708,0,0,0-.17-.7C4.267,15.052,7.924,4.249,18.4,4.249c15.156,0,12.324,20.971,2.637,20.971-2.5,0-4.357-1.96-3.769-4.385.713-2.888,2.11-5.994,2.11-8.075,0-5.247-7.817-4.469-7.817,2.483a8.41,8.41,0,0,0,.76,3.6S9.8,29,9.335,30.9c-.79,3.213.107,8.415.185,8.864a.263.263,0,0,0,.48.122c.248-.325,3.289-4.662,4.14-7.8.31-1.142,1.582-5.775,1.582-5.775.838,1.513,3.255,2.78,5.83,2.78,7.66,0,13.2-6.734,13.2-15.089-.027-8.01-6.882-14-15.706-14Z" transform="translate(-2.25)"/>
</svg>
